<svg width="300" height="62" viewBox="0 0 300 62" fill="none" xmlns="http://www.w3.org/2000/svg">
<g clip-path="url(#clip0_1258_12213)">
<path d="M62.0506 0.0144133L52.8489 0.00721214L55.5777 8.42637L38.2434 21.0101L51.9668 30.9999L68.2571 19.1728L62.0506 0.0144133Z" fill="#FFC800"/>
<path d="M12.6686 8.39755L15.401 0.00721214L6.2317 0L0 19.1512L16.2723 30.9999L30.0137 21.0245L12.6686 8.39755Z" fill="#E1AA00"/>
<path d="M32.5517 10.1484L18.6267 0.0108072L16.2795 7.22672L32.5517 19.0755L32.5589 19.0719V10.1412L32.5517 10.1484Z" fill="#E1AA00"/>
<path d="M49.6304 0.0216144L35.6874 10.1412V19.0719L51.9704 7.25194L49.6304 0.0216144Z" fill="#FFC800"/>
<path d="M16.3119 34.7646L16.2795 34.8691L32.5517 46.7215L32.5589 46.7143V22.9699L16.3119 34.7646Z" fill="#E1AA00"/>
<path d="M51.9308 34.7718L35.7054 22.9555L35.6874 22.9699V46.7143L51.9704 34.8943L51.9308 34.7718Z" fill="#FFC800"/>
<path d="M32.5481 50.515L19.3035 40.8709L16.2795 50.1655L32.5517 62.0143L32.5589 62.0071V50.5078L32.5481 50.515Z" fill="#E1AA00"/>
<path d="M48.9536 40.8745L35.6874 50.5078V62.0071L51.9704 50.1871L48.9536 40.8745Z" fill="#FFC800"/>
<path d="M108.358 23.6363C107.512 25.1105 106.253 26.3041 104.736 27.0696C103.109 27.9414 101.09 28.3761 98.6776 28.3737H94.2171V38.9868H87.017V9.42427H98.674C101.031 9.42427 103.023 9.83137 104.65 10.6455C106.182 11.3725 107.459 12.5469 108.311 14.0139C109.144 15.5208 109.565 17.2207 109.532 18.9422C109.551 20.582 109.147 22.1989 108.358 23.6363ZM101.201 21.6801C101.874 21.0353 102.213 20.1203 102.213 18.9422C102.213 17.7642 101.874 16.8491 101.201 16.2043C100.528 15.5594 99.5056 15.2352 98.1304 15.2352H94.2171V22.6492H98.1304C99.5056 22.6492 100.529 22.3262 101.201 21.6801Z" fill="white"/>
<path d="M131.672 33.7667H120.645L118.878 38.9868H111.346L122.035 9.42427H130.365L141.054 38.9868H133.44L131.672 33.7667ZM129.818 28.208L126.157 17.3823L122.557 28.208H129.818Z" fill="white"/>
<path d="M170.722 38.9868H163.522L151.487 20.7507V38.9868H144.287V9.42427H151.487L163.522 27.7432V9.42427H170.722V38.9868Z" fill="white"/>
<path d="M195.552 18.7585C195.035 17.791 194.235 17.0051 193.258 16.5069C192.168 15.9654 190.962 15.6971 189.745 15.7251C187.414 15.7251 185.548 16.4901 184.147 18.02C182.745 19.5498 182.043 21.5973 182.041 24.1623C182.041 26.8858 182.777 29.0125 184.251 30.5424C185.725 32.0723 187.748 32.8373 190.321 32.8373C191.922 32.8895 193.496 32.4163 194.803 31.4899C196.078 30.5125 197.013 29.1572 197.474 27.6172H188.355V22.3106H204.001V29.0077C203.444 30.8447 202.521 32.5494 201.286 34.0189C199.955 35.6031 198.297 36.8811 196.426 37.7655C194.349 38.7479 192.074 39.2408 189.777 39.2066C187.052 39.2538 184.362 38.5935 181.969 37.29C179.727 36.0476 177.88 34.1986 176.64 31.9546C175.382 29.547 174.725 26.8703 174.725 24.1533C174.725 21.4363 175.382 18.7596 176.64 16.352C177.876 14.1037 179.72 12.2495 181.961 11.0022C184.347 9.69865 187.031 9.03936 189.748 9.08923C193.283 9.08923 196.264 9.94544 198.691 11.6579C201.108 13.3572 202.82 15.8829 203.504 18.7585H195.552Z" fill="white"/>
<path d="M214.34 37.3441C212.048 36.075 210.143 34.2074 208.829 31.9402C207.49 29.5582 206.787 26.8715 206.787 24.1389C206.787 21.4062 207.49 18.7196 208.829 16.3376C210.145 14.0719 212.05 12.2047 214.34 10.9337C216.686 9.6618 219.312 8.99566 221.98 8.99566C224.647 8.99566 227.273 9.6618 229.619 10.9337C231.904 12.1973 233.796 14.0671 235.087 16.3376C236.404 18.7274 237.092 21.4124 237.089 24.1412C237.086 26.87 236.391 29.5534 235.069 31.9402C233.769 34.2052 231.878 36.0733 229.597 37.3441C227.256 38.616 224.633 39.2822 221.969 39.2822C219.304 39.2822 216.682 38.616 214.34 37.3441ZM227.639 30.3551C229.057 28.7796 229.766 26.7021 229.766 24.1227C229.766 21.5433 229.057 19.4586 227.639 17.8687C226.225 16.3075 224.339 15.5282 221.98 15.5306C219.62 15.533 217.719 16.3051 216.277 17.847C214.861 19.3913 214.153 21.4832 214.153 24.1227C214.153 26.7622 214.861 28.8468 216.277 30.3767C217.695 31.933 219.596 32.7112 221.98 32.7112C224.363 32.7112 226.249 31.9258 227.639 30.3551Z" fill="white"/>
<path d="M248.282 33.4281H257.707V38.9868H241.081V9.42427H248.282V33.4281Z" fill="white"/>
<path d="M268.355 9.42427V38.9868H261.155V9.42427H268.355Z" fill="white"/>
<path d="M300 38.9868H292.8L280.761 20.7507V38.9868H273.561V9.42427H280.761L292.8 27.7432V9.42427H300V38.9868Z" fill="white"/>
<path d="M88.6046 58.1308C88.145 57.9338 87.747 57.6164 87.4526 57.2121C87.1722 56.8161 87.0213 56.3429 87.0206 55.8575H88.3274C88.3663 56.2835 88.5612 56.68 88.8746 56.9707C89.265 57.295 89.7653 57.4563 90.2714 57.4211C90.7706 57.4499 91.2629 57.2934 91.6539 56.9815C91.8157 56.8431 91.9448 56.6705 92.032 56.4762C92.1191 56.2818 92.1621 56.0705 92.1579 55.8575C92.1721 55.538 92.0669 55.2246 91.8627 54.9785C91.6599 54.7511 91.4056 54.5757 91.1211 54.467C90.7269 54.3256 90.3256 54.2053 89.9186 54.1067C89.4106 53.9814 88.9124 53.8188 88.4282 53.6204C88.0493 53.4531 87.7196 53.1913 87.4706 52.8602C87.1889 52.4504 87.0497 51.9592 87.0746 51.4625C87.0658 50.9794 87.2026 50.5049 87.467 50.1007C87.7374 49.6954 88.1185 49.3765 88.565 49.182C89.0764 48.9576 89.6304 48.8469 90.1886 48.8578C90.9632 48.8249 91.7257 49.0589 92.3487 49.5207C92.6219 49.7294 92.8479 49.9936 93.0117 50.296C93.1755 50.5984 93.2735 50.9321 93.2991 51.2751H91.9527C91.8952 50.8946 91.691 50.5519 91.3839 50.3204C91.0072 50.0316 90.5402 49.886 90.0662 49.9097C89.6133 49.8897 89.168 50.0315 88.8098 50.3096C88.6476 50.4443 88.5191 50.6152 88.4347 50.8085C88.3503 51.0018 88.3123 51.2122 88.3238 51.4228C88.311 51.7284 88.4153 52.0274 88.6154 52.2586C88.8144 52.4762 89.0608 52.645 89.3354 52.7522C89.6198 52.8638 90.0158 52.9899 90.5306 53.134C91.0408 53.2693 91.5411 53.439 92.0283 53.642C92.4097 53.8134 92.7425 54.0771 92.9967 54.4093C93.2861 54.8213 93.4281 55.3188 93.3999 55.8215C93.4026 56.2778 93.2779 56.7257 93.0399 57.1148C92.7793 57.5385 92.4051 57.8805 91.9599 58.1019C91.4362 58.3584 90.8577 58.4821 90.275 58.4622C89.701 58.4721 89.1315 58.3591 88.6046 58.1308Z" fill="white"/>
<path d="M95.2035 52.6513C95.4951 52.0971 95.9367 51.6364 96.4779 51.3219C97.1181 50.9822 97.8376 50.8206 98.5615 50.8542C99.2853 50.8878 99.9868 51.1153 100.593 51.5129C101.188 51.9631 101.602 52.6126 101.759 53.343H100.438C100.332 52.9095 100.077 52.527 99.718 52.2622C99.3194 51.9923 98.8454 51.856 98.3644 51.8731C98.0455 51.8602 97.7278 51.9181 97.434 52.0427C97.1402 52.1672 96.8776 52.3554 96.6651 52.5936C96.2009 53.1692 95.9697 53.8982 96.0171 54.6363C95.9688 55.3811 96.1998 56.1172 96.6651 56.7005C96.8776 56.9388 97.1402 57.1269 97.434 57.2515C97.7278 57.3761 98.0455 57.434 98.3644 57.4211C98.8408 57.4437 99.3125 57.3178 99.7144 57.0608C100.079 56.7982 100.34 56.4157 100.452 55.98H101.759C101.581 56.6981 101.163 57.3337 100.575 57.7813C99.9303 58.2512 99.1469 58.491 98.35 58.4622C97.6963 58.474 97.0513 58.3111 96.4815 57.9903C95.9385 57.6749 95.4964 57.2113 95.2071 56.6537C94.8899 56.027 94.7328 55.3314 94.7499 54.6291C94.7366 53.9426 94.8924 53.2633 95.2035 52.6513Z" fill="white"/>
<path d="M103.39 52.6513C103.678 52.0995 104.115 51.6391 104.65 51.3219C105.196 51.0034 105.818 50.8402 106.45 50.85C107.039 50.8357 107.621 50.98 108.135 51.2679C108.584 51.514 108.957 51.8776 109.215 52.3198V50.9725H110.457V58.3649H109.215V56.9888C108.959 57.4397 108.586 57.8131 108.135 58.0695C107.624 58.3614 107.042 58.5084 106.454 58.4946C105.827 58.5026 105.211 58.3341 104.675 58.0083C104.141 57.6781 103.707 57.207 103.422 56.6465C103.108 56.029 102.95 55.3437 102.962 54.6507C102.936 53.9589 103.083 53.2717 103.39 52.6513ZM108.848 53.1989C108.641 52.8022 108.327 52.4724 107.941 52.2478C107.555 52.0323 107.122 51.9191 106.681 51.9191C106.239 51.9191 105.806 52.0323 105.42 52.2478C105.036 52.4708 104.723 52.7981 104.517 53.1917C104.285 53.6423 104.17 54.144 104.182 54.6507C104.17 55.1632 104.285 55.6706 104.517 56.1277C104.724 56.5246 105.037 56.8563 105.42 57.086C105.801 57.3059 106.234 57.4191 106.673 57.4138C107.116 57.4191 107.552 57.3059 107.937 57.086C108.324 56.8585 108.638 56.5263 108.844 56.1277C109.078 55.6751 109.194 55.1709 109.183 54.6615C109.197 54.1534 109.082 53.6499 108.848 53.1989Z" fill="white"/>
<path d="M113.729 48.3823V58.3649H112.502V48.3823H113.729Z" fill="white"/>
<path d="M122.521 55.1443H116.617C116.616 55.4559 116.678 55.7644 116.799 56.0514C116.921 56.3384 117.099 56.598 117.322 56.8146C117.546 57.0312 117.811 57.2004 118.102 57.312C118.393 57.4236 118.703 57.4755 119.014 57.4643C119.484 57.4843 119.948 57.3585 120.343 57.104C120.693 56.8625 120.956 56.5136 121.092 56.1097H122.413C122.225 56.8067 121.806 57.419 121.225 57.8462C120.581 58.3051 119.804 58.5393 119.014 58.5126C118.357 58.5231 117.709 58.3603 117.135 58.0407C116.582 57.7251 116.131 57.2591 115.832 56.697C115.525 56.07 115.366 55.3812 115.366 54.6831C115.366 53.9851 115.525 53.2962 115.832 52.6693C116.122 52.1107 116.569 51.6488 117.117 51.34C117.702 51.0226 118.36 50.8624 119.025 50.8752C119.675 50.863 120.317 51.022 120.886 51.3364C121.414 51.6279 121.847 52.0657 122.132 52.5973C122.43 53.1503 122.581 53.7704 122.571 54.3985C122.568 54.6479 122.551 54.8968 122.521 55.1443ZM120.984 52.9395C120.784 52.6063 120.491 52.3393 120.141 52.1722C119.773 51.9935 119.369 51.9035 118.96 51.9092C118.376 51.8949 117.809 52.1064 117.376 52.5C116.924 52.9318 116.656 53.5215 116.627 54.1463H121.308C121.318 53.7156 121.205 53.2909 120.984 52.9215V52.9395Z" fill="white"/>
<path d="M134.16 50.9725L129.692 61.845H128.425L129.883 58.2857L126.902 50.9725H128.263L130.585 56.9635L132.875 50.9725H134.16Z" fill="white"/>
<path d="M136.712 58.0263C136.153 57.7135 135.694 57.2473 135.391 56.6825C135.061 56.0622 134.897 55.3675 134.912 54.6651C134.898 53.9661 135.067 53.2756 135.402 52.6621C135.716 52.0998 136.181 51.6368 136.745 51.3256C137.332 51.0202 137.984 50.8608 138.645 50.8608C139.307 50.8608 139.959 51.0202 140.546 51.3256C141.11 51.6329 141.576 52.0938 141.889 52.6549C142.227 53.27 142.397 53.9633 142.382 54.6651C142.397 55.371 142.222 56.0679 141.875 56.6825C141.551 57.2482 141.078 57.7133 140.507 58.0263C139.918 58.3427 139.259 58.5051 138.591 58.4982C137.935 58.5063 137.287 58.3437 136.712 58.0263ZM139.833 57.1076C140.228 56.8939 140.553 56.5713 140.769 56.1782C141.001 55.7082 141.122 55.1911 141.122 54.6669C141.122 54.1427 141.001 53.6256 140.769 53.1556C140.558 52.7655 140.24 52.4442 139.851 52.2298C139.474 52.0279 139.052 51.9239 138.624 51.9272C138.194 51.9214 137.771 52.0256 137.393 52.2298C137.009 52.4432 136.697 52.7653 136.496 53.1556C136.258 53.622 136.141 54.1414 136.158 54.6651C136.139 55.1928 136.253 55.7168 136.489 56.189C136.685 56.5783 136.992 56.9006 137.371 57.1148C137.743 57.3176 138.161 57.4217 138.584 57.4175C139.021 57.4181 139.451 57.3078 139.833 57.0968V57.1076Z" fill="white"/>
<path d="M150.551 50.9725V58.3649H149.323V57.2842C149.087 57.6639 148.749 57.9697 148.348 58.1668C147.919 58.3814 147.445 58.4901 146.965 58.4838C146.426 58.4915 145.894 58.3679 145.414 58.1236C144.952 57.8811 144.576 57.5042 144.334 57.0428C144.053 56.507 143.915 55.9076 143.934 55.3028V50.9797H145.147V55.1442C145.108 55.7546 145.306 56.3565 145.702 56.823C145.897 57.0224 146.132 57.178 146.393 57.2792C146.653 57.3805 146.931 57.4251 147.21 57.4102C147.497 57.4256 147.783 57.3795 148.051 57.2751C148.319 57.1708 148.561 57.0105 148.762 56.805C149.168 56.3088 149.37 55.6763 149.327 55.0362V50.9725H150.551Z" fill="white"/>
<path d="M154.777 51.1814C155.225 50.9322 155.731 50.8078 156.243 50.8212V52.0929H155.918C154.543 52.0929 153.856 52.8386 153.856 54.3301V58.3505H152.628V50.9725H153.856V52.1721C154.06 51.7589 154.38 51.4145 154.777 51.1814Z" fill="white"/>
<path d="M166.845 49.5351C167.571 49.8957 168.172 50.4669 168.569 51.1742C168.986 51.948 169.193 52.8174 169.17 53.696C169.192 54.5677 168.984 55.4297 168.569 56.1962C168.173 56.8998 167.571 57.4654 166.845 57.8173C166.012 58.2072 165.1 58.3983 164.181 58.3757H161.257V48.9731H164.181C165.101 48.9464 166.014 49.139 166.845 49.5351ZM166.96 56.3799C167.596 55.7339 167.915 54.832 167.917 53.6744C167.946 53.1763 167.876 52.6774 167.71 52.2067C167.545 51.7361 167.287 51.3031 166.953 50.9329C166.308 50.2772 165.387 49.9494 164.181 49.9494H162.481V57.3418H164.181C165.397 57.349 166.324 57.032 166.96 56.3907V56.3799Z" fill="white"/>
<path d="M177.49 55.1442H171.6C171.623 55.5683 171.755 55.9791 171.984 56.3365C172.214 56.694 172.531 56.9858 172.907 57.1833C173.283 57.3809 173.703 57.4774 174.127 57.4635C174.551 57.4496 174.965 57.3258 175.326 57.104C175.677 56.8625 175.94 56.5136 176.075 56.1097H177.396C177.209 56.8067 176.79 57.419 176.208 57.8462C175.565 58.3051 174.788 58.5393 173.998 58.5126C173.335 58.5215 172.681 58.3537 172.104 58.0263C171.552 57.7106 171.1 57.2447 170.801 56.6825C170.494 56.0556 170.335 55.3668 170.335 54.6687C170.335 53.9706 170.494 53.2818 170.801 52.6549C171.09 52.0956 171.537 51.6334 172.086 51.3256C172.671 51.0078 173.329 50.8477 173.994 50.8608C174.644 50.8486 175.286 51.0076 175.856 51.3219C176.383 51.6135 176.816 52.0513 177.101 52.5828C177.397 53.1365 177.548 53.7562 177.54 54.3841C177.53 54.6183 177.515 54.8669 177.49 55.1442ZM175.953 52.9395C175.752 52.6079 175.459 52.3414 175.11 52.1721C174.743 51.9935 174.338 51.9035 173.93 51.9092C173.345 51.8948 172.778 52.1064 172.346 52.5C171.893 52.9317 171.625 53.5215 171.597 54.1463H176.277C176.287 53.7156 176.174 53.2909 175.953 52.9215V52.9395Z" fill="white"/>
<path d="M184.46 48.9623V49.9602H180.374V53.1304H183.693V54.1283H180.374V58.3649H179.16V48.9623H184.46Z" fill="white"/>
<path d="M186.001 49.5279C185.883 49.4106 185.803 49.2612 185.771 49.0984C185.739 48.9357 185.756 48.767 185.819 48.6138C185.883 48.4606 185.99 48.3297 186.129 48.2378C186.267 48.146 186.429 48.0972 186.595 48.0977C186.702 48.096 186.808 48.1169 186.907 48.1591C187.006 48.2013 187.094 48.2638 187.167 48.3426C187.32 48.5022 187.405 48.7145 187.405 48.9353C187.405 49.1561 187.32 49.3683 187.167 49.5279C187.094 49.6062 187.005 49.6682 186.907 49.7098C186.808 49.7514 186.702 49.7717 186.595 49.7693C186.484 49.7718 186.375 49.7517 186.273 49.7102C186.17 49.6687 186.078 49.6066 186.001 49.5279ZM187.189 50.9689V58.3613H185.961V50.9725L187.189 50.9689Z" fill="white"/>
<path d="M194.356 51.9848V56.3439C194.342 56.4796 194.356 56.6167 194.395 56.7472C194.435 56.8777 194.5 56.999 194.587 57.104C194.814 57.2763 195.098 57.3561 195.382 57.3274H196.282V58.3649H195.177C194.624 58.4077 194.074 58.2391 193.64 57.893C193.453 57.684 193.31 57.4385 193.222 57.1719C193.134 56.9053 193.103 56.6234 193.129 56.3439V51.9848H192.171V50.9725H193.129V49.11H194.356V50.9725H196.282V51.9848H194.356Z" fill="white"/>
<path d="M199.918 51.1814C200.364 50.9322 200.869 50.8077 201.38 50.8212V52.0929H201.056C199.681 52.0929 198.993 52.8386 198.993 54.3301V58.3505H197.766V50.9725H198.993V52.1721C199.198 51.7587 199.52 51.4143 199.918 51.1814Z" fill="white"/>
<path d="M202.795 52.6513C203.084 52.0993 203.522 51.6389 204.058 51.3219C204.604 51.0034 205.227 50.8402 205.858 50.85C206.447 50.8357 207.029 50.98 207.543 51.2679C207.992 51.514 208.365 51.8776 208.623 52.3198V50.9725H209.862V58.3649H208.623V56.9888C208.366 57.4389 207.993 57.812 207.543 58.0695C207.033 58.3608 206.453 58.5077 205.866 58.4946C205.239 58.5026 204.623 58.3341 204.087 58.0083C203.551 57.6794 203.116 57.208 202.831 56.6465C202.518 56.0287 202.361 55.3434 202.374 54.6507C202.346 53.9595 202.49 53.2723 202.795 52.6513ZM208.256 53.1989C208.05 52.8013 207.733 52.4712 207.345 52.2478C206.96 52.0316 206.527 51.9181 206.085 51.9181C205.644 51.9181 205.21 52.0316 204.825 52.2478C204.44 52.4699 204.127 52.7974 203.922 53.1917C203.689 53.642 203.572 54.1437 203.583 54.6507C203.572 55.1635 203.689 55.6709 203.922 56.1277C204.127 56.5254 204.44 56.8574 204.825 57.086C205.206 57.3059 205.639 57.4191 206.078 57.4138C206.52 57.4191 206.955 57.306 207.338 57.086C207.727 56.8599 208.043 56.5274 208.249 56.1277C208.481 55.6745 208.597 55.1707 208.587 54.6615C208.601 54.1539 208.487 53.6509 208.256 53.1989Z" fill="white"/>
<path d="M211.921 52.6513C212.21 52.1003 212.646 51.6402 213.181 51.3219C213.727 51.005 214.349 50.8419 214.981 50.85C215.541 50.846 216.094 50.9836 216.587 51.2499C217.053 51.4886 217.445 51.8498 217.721 52.2946V48.3823H218.959V58.3649H217.721V56.9743C217.464 57.4253 217.091 57.7987 216.641 58.0551C216.132 58.3478 215.553 58.4949 214.967 58.4802C214.337 58.4885 213.718 58.3196 213.179 57.9929C212.641 57.6661 212.205 57.1946 211.921 56.6321C211.608 56.0143 211.451 55.329 211.464 54.6363C211.449 53.9469 211.606 53.2648 211.921 52.6513ZM217.382 53.1989C217.174 52.8028 216.858 52.4733 216.471 52.2478C216.087 52.0316 215.653 51.9181 215.211 51.9181C214.77 51.9181 214.336 52.0316 213.951 52.2478C213.567 52.4699 213.253 52.7974 213.048 53.1917C212.813 53.6414 212.697 54.1435 212.709 54.6507C212.697 55.1636 212.813 55.6715 213.048 56.1277C213.254 56.5254 213.567 56.8574 213.951 57.086C214.332 57.3064 214.765 57.4196 215.204 57.4138C215.646 57.4186 216.081 57.3055 216.464 57.086C216.851 56.8577 217.167 56.5258 217.375 56.1277C217.607 55.6745 217.724 55.1707 217.714 54.6615C217.724 54.1529 217.607 53.6499 217.371 53.1989H217.382Z" fill="white"/>
<path d="M221.065 49.5279C220.948 49.4106 220.868 49.2611 220.836 49.0984C220.803 48.9357 220.82 48.767 220.884 48.6138C220.947 48.4606 221.055 48.3297 221.193 48.2378C221.331 48.1459 221.493 48.0972 221.659 48.0977C221.766 48.0966 221.873 48.1178 221.971 48.16C222.07 48.2022 222.158 48.2644 222.232 48.3426C222.384 48.5022 222.469 48.7145 222.469 48.9353C222.469 49.156 222.384 49.3683 222.232 49.5279C222.158 49.6056 222.069 49.6673 221.971 49.7088C221.872 49.7504 221.766 49.771 221.659 49.7692C221.549 49.7718 221.439 49.7517 221.337 49.7102C221.235 49.6686 221.142 49.6066 221.065 49.5279ZM222.253 50.9689V58.3613H221.026V50.9725L222.253 50.9689Z" fill="white"/>
<path d="M230.127 51.6534C230.419 51.9676 230.644 52.3385 230.787 52.7431C230.931 53.1477 230.99 53.5775 230.962 54.0059V58.3649H229.749V54.1824C229.791 53.5673 229.592 52.9598 229.194 52.4892C228.998 52.2905 228.763 52.1355 228.503 52.0343C228.243 51.9331 227.964 51.888 227.686 51.902C227.4 51.8886 227.114 51.936 226.848 52.0409C226.582 52.1458 226.341 52.306 226.141 52.5108C225.729 53.0028 225.524 53.6357 225.569 54.2761V58.3649H224.341V50.9725H225.569V52.0245C225.811 51.646 226.154 51.3428 226.559 51.149C226.989 50.9372 227.462 50.8298 227.941 50.8356C228.342 50.8189 228.741 50.8827 229.117 51.0231C229.492 51.1636 229.835 51.3779 230.127 51.6534Z" fill="white"/>
<path d="M237.697 51.2679C238.146 51.5138 238.52 51.8775 238.777 52.3198V50.9725H240.001V58.5378C240.013 59.1653 239.864 59.7852 239.569 60.3391C239.285 60.8613 238.856 61.2903 238.335 61.5748C237.761 61.8799 237.119 62.0325 236.47 62.0179C235.609 62.0516 234.759 61.8106 234.043 61.3298C233.731 61.1158 233.468 60.8384 233.27 60.5156C233.072 60.1928 232.944 59.832 232.895 59.4565H234.108C234.246 59.9073 234.545 60.2918 234.947 60.5372C235.403 60.822 235.933 60.9661 236.47 60.9515C236.774 60.9627 237.077 60.9123 237.361 60.8033C237.645 60.6944 237.904 60.5291 238.122 60.3175C238.346 60.0768 238.518 59.7928 238.628 59.4831C238.739 59.1733 238.784 58.8443 238.763 58.5162V56.9635C238.503 57.4114 238.131 57.7839 237.683 58.0443C237.176 58.3406 236.596 58.4902 236.009 58.4766C235.379 58.4848 234.76 58.316 234.222 57.9892C233.683 57.6625 233.247 57.191 232.963 56.6285C232.65 56.0107 232.493 55.3254 232.506 54.6327C232.49 53.9409 232.648 53.2561 232.963 52.6405C233.253 52.0895 233.689 51.6294 234.223 51.3111C234.769 50.9929 235.392 50.8298 236.023 50.8392C236.609 50.8312 237.187 50.9791 237.697 51.2679ZM238.417 53.1989C238.209 52.8028 237.893 52.4733 237.507 52.2478C237.122 52.0316 236.688 51.9181 236.247 51.9181C235.805 51.9181 235.371 52.0316 234.987 52.2478C234.602 52.4699 234.288 52.7973 234.083 53.1917C233.848 53.6414 233.732 54.1435 233.745 54.6507C233.732 55.1636 233.848 55.6715 234.083 56.1277C234.289 56.5254 234.602 56.8574 234.987 57.086C235.367 57.3067 235.8 57.42 236.239 57.4138C236.681 57.4186 237.116 57.3055 237.499 57.086C237.886 56.8577 238.202 56.5258 238.41 56.1277C238.642 55.6745 238.759 55.1707 238.749 54.6615C238.767 54.1551 238.658 53.6522 238.432 53.1989H238.417Z" fill="white"/>
</g>
<defs>
<clipPath id="clip0_1258_12213">
<rect width="300" height="62" fill="white"/>
</clipPath>
</defs>
</svg>
