<svg width="160" height="34" viewBox="0 0 160 34" fill="none" xmlns="http://www.w3.org/2000/svg">
<path d="M6.4707 26.3691C4.58398 26.3691 3.08398 25.8652 1.9707 24.8574C0.857422 23.8379 0.300781 22.4551 0.300781 20.709C0.300781 18.9277 1.02148 17.4746 2.46289 16.3496C3.91602 15.2246 6.04883 14.6621 8.86133 14.6621H11.375V13.2559C11.375 12.3418 11.1055 11.6035 10.5664 11.041C10.0391 10.4668 9.24219 10.1797 8.17578 10.1797C7.625 10.1797 7.12695 10.25 6.68164 10.3906C6.24805 10.5195 5.85547 10.707 5.50391 10.9531L5.09961 13.4668H1.4082L1.33789 8.52734C2.33398 7.96484 3.41211 7.50781 4.57227 7.15625C5.73242 6.80469 7.02734 6.62891 8.45703 6.62891C10.9414 6.62891 12.9043 7.20898 14.3457 8.36914C15.7871 9.5293 16.5078 11.1758 16.5078 13.3086V21.1484C16.5078 21.4062 16.5078 21.6582 16.5078 21.9043C16.5195 22.1504 16.543 22.3965 16.5781 22.6426L18.5645 22.9238V26H12.2012C12.0723 25.6719 11.9434 25.3203 11.8145 24.9453C11.6855 24.5703 11.5918 24.1953 11.5332 23.8203C10.9238 24.5938 10.2031 25.2148 9.37109 25.6836C8.55078 26.1406 7.58398 26.3691 6.4707 26.3691ZM7.8418 22.5723C8.55664 22.5723 9.23047 22.4141 9.86328 22.0977C10.5078 21.7695 11.0117 21.3418 11.375 20.8145V17.8086H8.84375C7.71875 17.8086 6.86328 18.0664 6.27734 18.582C5.70312 19.0977 5.41602 19.7188 5.41602 20.4453C5.41602 21.125 5.62695 21.6523 6.04883 22.0273C6.48242 22.3906 7.08008 22.5723 7.8418 22.5723ZM26.668 26L20.9199 10.3906L18.8633 10.0742V6.98047H28.0918V10.0566L26.0879 10.4082L28.9531 19.0391L29.3926 20.5156H29.498L29.9902 19.0391L33.1367 10.4258L30.7988 10.0566V6.98047H40.0098V10.0742L37.9004 10.4258L31.8887 26H26.668ZM47.6035 26.3691C45.7168 26.3691 44.2168 25.8652 43.1035 24.8574C41.9902 23.8379 41.4336 22.4551 41.4336 20.709C41.4336 18.9277 42.1543 17.4746 43.5957 16.3496C45.0488 15.2246 47.1816 14.6621 49.9941 14.6621H52.5078V13.2559C52.5078 12.3418 52.2383 11.6035 51.6992 11.041C51.1719 10.4668 50.375 10.1797 49.3086 10.1797C48.7578 10.1797 48.2598 10.25 47.8145 10.3906C47.3809 10.5195 46.9883 10.707 46.6367 10.9531L46.2324 13.4668H42.541L42.4707 8.52734C43.4668 7.96484 44.5449 7.50781 45.7051 7.15625C46.8652 6.80469 48.1602 6.62891 49.5898 6.62891C52.0742 6.62891 54.0371 7.20898 55.4785 8.36914C56.9199 9.5293 57.6406 11.1758 57.6406 13.3086V21.1484C57.6406 21.4062 57.6406 21.6582 57.6406 21.9043C57.6523 22.1504 57.6758 22.3965 57.7109 22.6426L59.6973 22.9238V26H53.334C53.2051 25.6719 53.0762 25.3203 52.9473 24.9453C52.8184 24.5703 52.7246 24.1953 52.666 23.8203C52.0566 24.5938 51.3359 25.2148 50.5039 25.6836C49.6836 26.1406 48.7168 26.3691 47.6035 26.3691ZM48.9746 22.5723C49.6895 22.5723 50.3633 22.4141 50.9961 22.0977C51.6406 21.7695 52.1445 21.3418 52.5078 20.8145V17.8086H49.9766C48.8516 17.8086 47.9961 18.0664 47.4102 18.582C46.8359 19.0977 46.5488 19.7188 46.5488 20.4453C46.5488 21.125 46.7598 21.6523 47.1816 22.0273C47.6152 22.3906 48.2129 22.5723 48.9746 22.5723ZM61.0508 26V22.9238L63.2832 22.502L70.5254 13.3262L63.7051 3.93945L61.6309 3.5V0.40625H71.6328V3.5L69.1895 3.72852L73.584 9.88086L77.9785 3.72852L75.5879 3.5V0.40625H85.4492V3.5L83.1816 3.93945L76.625 12.8691L83.9727 22.4844L86.416 22.9238V26H76.168V22.9238L78.3652 22.7129L73.6191 16.209L68.7676 22.7129L70.9121 22.9238V26H61.0508ZM94.3613 26L89.9316 10.4961L87.6113 10.0742V6.98047H96.8047V10.0566L94.8008 10.4434L96.5586 17.8438L96.9102 19.3027H97.0156L97.4902 17.8438L101.393 6.98047H104.838L108.617 17.9844L109.109 19.5312H109.215L109.672 17.9844L111.746 10.4609L109.531 10.0566V6.98047H118.531V10.0742L116.316 10.4961L111.482 26H107.158L103.678 16.5781L103.062 14.4863H102.957L102.342 16.5957L98.9141 26H94.3613ZM126.529 26.3691C124.643 26.3691 123.143 25.8652 122.029 24.8574C120.916 23.8379 120.359 22.4551 120.359 20.709C120.359 18.9277 121.08 17.4746 122.521 16.3496C123.975 15.2246 126.107 14.6621 128.92 14.6621H131.434V13.2559C131.434 12.3418 131.164 11.6035 130.625 11.041C130.098 10.4668 129.301 10.1797 128.234 10.1797C127.684 10.1797 127.186 10.25 126.74 10.3906C126.307 10.5195 125.914 10.707 125.562 10.9531L125.158 13.4668H121.467L121.396 8.52734C122.393 7.96484 123.471 7.50781 124.631 7.15625C125.791 6.80469 127.086 6.62891 128.516 6.62891C131 6.62891 132.963 7.20898 134.404 8.36914C135.846 9.5293 136.566 11.1758 136.566 13.3086V21.1484C136.566 21.4062 136.566 21.6582 136.566 21.9043C136.578 22.1504 136.602 22.3965 136.637 22.6426L138.623 22.9238V26H132.26C132.131 25.6719 132.002 25.3203 131.873 24.9453C131.744 24.5703 131.65 24.1953 131.592 23.8203C130.982 24.5938 130.262 25.2148 129.43 25.6836C128.609 26.1406 127.643 26.3691 126.529 26.3691ZM127.9 22.5723C128.615 22.5723 129.289 22.4141 129.922 22.0977C130.566 21.7695 131.07 21.3418 131.434 20.8145V17.8086H128.902C127.777 17.8086 126.922 18.0664 126.336 18.582C125.762 19.0977 125.475 19.7188 125.475 20.4453C125.475 21.125 125.686 21.6523 126.107 22.0273C126.541 22.3906 127.139 22.5723 127.9 22.5723ZM140.328 33.3125V30.2188L142.807 29.6914V10.6016L140.064 10.0742V6.98047H147.518L147.764 9.19531C148.326 8.375 149.006 7.74219 149.803 7.29688C150.6 6.85156 151.549 6.62891 152.65 6.62891C154.186 6.62891 155.498 7.05078 156.588 7.89453C157.678 8.72656 158.51 9.89258 159.084 11.3926C159.67 12.8926 159.963 14.6445 159.963 16.6484V17.0176C159.963 18.8926 159.67 20.5332 159.084 21.9395C158.498 23.334 157.654 24.4238 156.553 25.209C155.463 25.9824 154.15 26.3691 152.615 26.3691C150.611 26.3691 149.047 25.6426 147.922 24.1895V29.6914L150.4 30.2188V33.3125H140.328ZM151.086 22.4316C152.398 22.4316 153.348 21.9453 153.934 20.9727C154.531 20 154.83 18.6816 154.83 17.0176V16.6484C154.83 14.8555 154.525 13.4023 153.916 12.2891C153.307 11.1758 152.352 10.6191 151.051 10.6191C149.621 10.6191 148.578 11.2285 147.922 12.4473V20.7793C148.566 21.8809 149.621 22.4316 151.086 22.4316Z" fill="black"/>
</svg>
